# Blender v2.78 (sub 0) OBJ File: 'CHAHIN_BOOTS.blend'
# www.blender.org
mtllib CHAHIN_BOOTS.mtl
o Cube.010_Cube.012
v -0.567620 -0.107888 0.271872
v -0.662851 0.626312 0.367103
v -0.567620 -0.107888 -0.271866
v -0.662851 0.626312 -0.367097
v -0.023992 -0.107209 0.271872
v 0.071349 0.626312 0.367103
v -0.023992 -0.107209 -0.271866
v 0.071349 0.626312 -0.367097
v -0.567620 -0.553242 -0.271866
v -0.567620 -0.553242 0.271872
v -0.023882 -0.553242 -0.271866
v 0.579749 -0.010060 0.362871
v 0.579749 -0.010060 -0.362866
v 0.578902 -0.553242 -0.362866
v 0.763635 -0.107888 0.271872
v 0.763635 -0.107888 -0.271866
v 0.763635 -0.553242 0.271872
v 0.763635 -0.553242 -0.271866
v -0.620393 0.626312 0.324645
v -0.620393 0.626312 -0.324639
v 0.028891 0.626312 -0.324639
v 0.028891 0.626312 0.324645
v -0.481673 -0.512060 0.185925
v -0.481673 -0.512060 -0.185920
v -0.109829 -0.512060 -0.185920
v -0.109829 -0.512060 0.185925
v 0.129885 0.666776 -0.367097
v 0.129885 0.666776 0.367103
v 0.118092 0.707563 -0.324639
v 0.118092 0.707563 0.324645
v 0.181655 0.620331 -0.367097
v 0.181655 0.620331 0.367103
v 0.215421 0.646070 -0.324639
v 0.215421 0.646070 0.324645
v 0.259577 0.459053 -0.214490
v 0.259577 0.459053 0.214495
v 0.284232 0.456300 -0.189682
v 0.284232 0.456300 0.189687
v -0.295751 -0.107888 -0.328832
v -0.295751 0.626312 -0.444018
v -0.295751 -0.107888 0.328837
v -0.295751 0.626312 0.444023
v -0.295751 -0.553242 -0.328832
v -0.295751 -0.553242 0.328837
v -0.295751 0.626312 -0.392663
v -0.295751 0.626312 0.392669
v -0.295751 -0.512060 -0.224877
v -0.295751 -0.512060 0.224882
v -0.659760 -0.107888 0.000003
v -0.770278 0.626312 0.000003
v -0.659760 -0.553242 0.000003
v -0.023882 -0.553242 0.271872
v 0.669321 0.004353 0.000003
v 0.578902 -0.553242 0.362871
v 0.885180 -0.107888 0.000003
v 0.885180 -0.553242 0.000003
v -0.721004 0.626312 0.000003
v 0.032499 0.626312 0.000003
v -0.560018 -0.512060 0.000003
v -0.128487 -0.512060 0.000003
v 0.149704 0.666776 0.000003
v 0.136018 0.707563 0.000003
v 0.209783 0.620331 0.000003
v 0.248970 0.646070 0.000003
v 0.292749 0.459053 0.000003
v 0.321361 0.456300 0.000003
v -0.344253 -0.512060 0.000003
v -0.659760 -0.643519 0.000003
v -0.567620 -0.643519 0.271872
v -0.295751 -0.643519 -0.328832
v -0.567620 -0.643519 -0.271866
v -0.023882 -0.643519 0.271872
v -0.023882 -0.643519 -0.271866
v 0.578902 -0.643519 0.362871
v 0.578902 -0.643519 -0.362866
v 0.885180 -0.643519 0.000003
v 0.763635 -0.643519 -0.271866
v -0.295751 -0.643519 0.328837
v 0.763635 -0.643519 0.271872
vt 0.3155 0.7528
vt 0.2741 0.7489
vt 0.3120 0.7536
vt 0.3272 0.7810
vt 0.3612 0.8012
vt 0.3355 0.7632
vt 0.3553 0.7652
vt 0.4135 0.8068
vt 0.3547 0.7419
vt 0.4182 0.7134
vt 0.3661 0.7112
vt 0.3360 0.7424
vt 0.3119 0.7493
vt 0.3303 0.7264
vt 0.3921 0.9234
vt 0.3151 0.8798
vt 0.3129 0.7467
vt 0.2944 0.7503
vt 0.2672 0.8195
vt 0.2530 0.7491
vt 0.5735 0.7185
vt 0.5840 0.7708
vt 0.2759 0.6812
vt 0.3310 0.6278
vt 0.5951 0.9496
vt 0.5672 0.8215
vt 0.6059 0.8242
vt 0.7024 0.9099
vt 0.6741 0.3591
vt 0.4528 0.3534
vt 0.4530 0.3188
vt 0.6653 0.3256
vt 0.4125 0.5948
vt 0.6177 0.5948
vt 0.6372 0.7743
vt 0.6125 0.7207
vt 0.7193 0.6481
vt 0.8028 0.7852
vt 0.2087 0.2257
vt 0.2341 0.1149
vt 0.2633 0.1369
vt 0.2438 0.2219
vt 0.3327 0.7433
vt 0.3467 0.7450
vt 0.3288 0.7525
vt 0.3279 0.7523
vt 0.3127 0.7561
vt 0.3323 0.7618
vt 0.3535 0.7456
vt 0.3513 0.7466
vt 0.3278 0.7522
vt 0.3270 0.7521
vt 0.3273 0.7530
vt 0.3274 0.7513
vt 0.3280 0.7521
vt 0.3472 0.7532
vt 0.3468 0.7614
vt 0.3288 0.7520
vt 0.3287 0.7522
vt 0.3539 0.7611
vt 0.3516 0.7600
vt 0.3529 0.7585
vt 0.3538 0.7592
vt 0.3496 0.7533
vt 0.3556 0.7534
vt 0.3527 0.7482
vt 0.3535 0.7475
vt 0.3531 0.7510
vt 0.3536 0.7513
vt 0.3512 0.7533
vt 0.3553 0.7533
vt 0.3537 0.7553
vt 0.3532 0.7557
vt 0.3534 0.7533
vt 0.3535 0.7533
vt 0.3397 0.0696
vt 0.4553 0.0696
vt 0.4545 0.1063
vt 0.3479 0.1065
vt 0.6895 0.0837
vt 0.6803 0.1143
vt 0.3507 0.3555
vt 0.3546 0.3238
vt 0.7334 0.1447
vt 0.7589 0.2240
vt 0.2708 0.3013
vt 0.7239 0.3006
vt 0.7913 0.2240
vt 0.7485 0.3235
vt 0.2498 0.3276
vt 0.7568 0.1225
vn -0.9435 -0.1513 -0.2947
vn 0.2029 -0.1519 -0.9674
vn 0.9917 -0.1289 0.0000
vn -0.2027 -0.1518 0.9674
vn 0.2051 0.0000 -0.9787
vn 0.0000 1.0000 0.0000
vn -0.9471 0.0000 -0.3210
vn -0.1589 0.9873 0.0000
vn -0.2051 0.0000 0.9787
vn 0.4426 -0.0004 -0.8967
vn -0.1492 0.0001 -0.9888
vn -0.1493 0.0000 0.9888
vn -0.1492 0.0001 0.9888
vn 0.9129 0.0000 0.4081
vn 0.4896 0.8527 0.1822
vn 0.4426 -0.0004 0.8967
vn -0.2030 0.1428 -0.9687
vn -0.5021 0.6095 0.6135
vn 0.2030 0.1428 0.9687
vn -0.9913 0.1287 -0.0292
vn 0.9340 0.1429 -0.3274
vn 0.4610 0.6367 -0.6181
vn -0.6445 0.7643 -0.0214
vn -0.5021 0.6095 -0.6135
vn 0.5684 -0.8222 -0.0307
vn 0.7722 -0.1771 0.6102
vn 0.5045 0.8625 0.0400
vn 0.4610 0.6367 0.6181
vn -0.6383 -0.7686 0.0417
vn 0.7722 -0.1771 -0.6102
vn 0.9435 0.3049 -0.1297
vn -0.1117 -0.9935 0.0194
vn -0.9081 -0.4077 -0.0957
vn -0.2030 0.1428 0.9687
vn 0.2030 0.1428 -0.9687
vn 0.2051 0.0000 0.9787
vn -0.2051 0.0000 -0.9787
vn 0.2029 -0.1519 0.9674
vn -0.2027 -0.1518 -0.9674
vn -0.9081 -0.4077 0.0957
vn -0.1117 -0.9935 -0.0194
vn 0.9435 0.3049 0.1297
vn -0.6383 -0.7686 -0.0417
vn 0.5045 0.8625 -0.0400
vn 0.4912 -0.8710 0.0088
vn -0.6445 0.7643 0.0214
vn 0.9340 0.1429 0.3274
vn -0.9913 0.1287 0.0292
vn -0.1493 0.0000 -0.9888
vn 0.4896 0.8527 -0.1822
vn 0.9129 0.0000 -0.4081
vn -0.9471 0.0000 0.3210
vn -0.9435 -0.1513 0.2947
vn 0.0000 -1.0000 0.0000
vn 0.4419 0.0000 0.8971
vn 0.4419 0.0000 -0.8971
usemtl Material.015
s off
f 49/1/1 50/2/1 4/3/1 3/4/1
f 39/5/2 40/6/2 8/7/2 7/8/2
f 7/8/3 8/7/3 6/9/3 5/10/3
f 41/11/4 42/12/4 2/13/4 1/14/4
f 39/5/5 7/8/5 11/15/5 43/16/5
f 50/2/6 2/13/6 19/17/6 57/18/6
f 49/1/7 3/4/7 9/19/7 51/20/7
f 7/8/8 5/10/8 12/21/8 53/22/8
f 41/11/9 1/14/9 10/23/9 44/24/9
f 14/25/10 13/26/10 16/27/10 18/28/10
f 11/15/11 7/8/11 13/26/11 14/25/11
f 54/29/12 52/30/12 72/31/12 74/32/12
f 5/10/13 52/33/13 54/34/13 12/21/13
f 55/35/14 15/36/14 17/37/14 56/38/14
f 53/22/15 12/21/15 15/36/15 55/35/15
f 12/21/16 54/34/16 17/37/16 15/36/16
f 51/39/7 9/40/7 71/41/7 68/42/7
f 46/43/17 22/44/17 26/45/17 48/46/17
f 42/12/6 6/9/6 22/44/6 46/43/6
f 40/6/6 4/3/6 20/47/6 45/48/6
f 22/44/18 6/9/18 28/49/18 30/50/18
f 67/51/6 59/52/6 23/53/6 48/46/6
f 45/48/19 20/47/19 24/54/19 47/55/19
f 58/56/20 21/57/20 25/58/20 60/59/20
f 57/18/21 19/17/21 23/53/21 59/52/21
f 27/60/22 29/61/22 33/62/22 31/63/22
f 58/56/23 22/44/23 30/50/23 62/64/23
f 8/7/24 21/57/24 29/61/24 27/60/24
f 8/7/25 27/60/25 61/65/25
f 34/66/26 32/67/26 36/68/26 38/69/26
f 62/64/27 30/50/27 34/66/27 64/70/27
f 30/50/28 28/49/28 32/67/28 34/66/28
f 61/65/29 27/60/29 31/63/29 63/71/29
f 33/62/30 37/72/30 35/73/30 31/63/30
f 64/70/31 66/74/31 37/72/31 33/62/31
f 65/75/32 35/73/32 37/72/32 66/74/32
f 63/71/33 65/75/33 36/68/33 32/67/33
f 21/57/34 45/48/34 47/55/34 25/58/34
f 60/59/6 67/51/6 48/46/6 26/45/6
f 8/7/6 40/6/6 45/48/6 21/57/6
f 2/13/6 42/12/6 46/43/6 19/17/6
f 19/17/35 46/43/35 48/46/35 23/53/35
f 5/10/36 41/11/36 44/24/36 52/33/36
f 43/76/5 11/77/5 73/78/5 70/79/5
f 3/4/37 39/5/37 43/16/37 9/19/37
f 5/10/38 6/9/38 42/12/38 41/11/38
f 3/4/39 4/3/39 40/6/39 39/5/39
f 9/40/37 43/76/37 70/79/37 71/41/37
f 25/58/6 47/55/6 67/51/6 60/59/6
f 31/63/40 35/73/40 65/75/40 63/71/40
f 36/68/41 65/75/41 66/74/41 38/69/41
f 34/66/42 38/69/42 66/74/42 64/70/42
f 28/49/43 61/65/43 63/71/43 32/67/43
f 29/61/44 62/64/44 64/70/44 33/62/44
f 6/9/45 8/7/45 61/65/45 28/49/45
f 21/57/46 58/56/46 62/64/46 29/61/46
f 20/47/47 57/18/47 59/52/47 24/54/47
f 22/44/48 58/56/48 60/59/48 26/45/48
f 47/55/6 24/54/6 59/52/6 67/51/6
f 11/77/49 14/80/49 75/81/49 73/78/49
f 13/26/50 53/22/50 55/35/50 16/27/50
f 16/27/51 55/35/51 56/38/51 18/28/51
f 7/8/8 53/22/8 13/26/8
f 1/14/52 49/1/52 51/20/52 10/23/52
f 52/30/36 44/82/36 78/83/36 72/31/36
f 4/3/6 50/2/6 57/18/6 20/47/6
f 1/14/53 2/13/53 50/2/53 49/1/53
f 72/31/54 73/78/54 75/81/54 74/32/54
f 74/32/54 75/81/54 77/84/54 76/85/54
f 68/42/54 78/83/54 69/86/54
f 71/41/54 70/79/54 78/83/54 68/42/54
f 74/32/54 76/85/54 79/87/54
f 70/79/54 73/78/54 72/31/54 78/83/54
f 56/88/14 17/89/14 79/87/14 76/85/14
f 44/82/9 10/90/9 69/86/9 78/83/9
f 18/91/51 56/88/51 76/85/51 77/84/51
f 17/89/55 54/29/55 74/32/55 79/87/55
f 10/90/52 51/39/52 68/42/52 69/86/52
f 14/80/56 18/91/56 77/84/56 75/81/56
