{
  "accessors": [
    {
      "bufferView": 2,
      "componentType": 5126,
      "count": 3538,
      "max": [
        1.8101998567581177,
        0.96449607610702515,
        4.3151707649230957
      ],
      "min": [
        -2.1902825832366943,
        -0.96449607610702515,
        1.0674679279327393
      ],
      "type": "VEC3"
    },
    {
      "bufferView": 2,
      "byteOffset": 42456,
      "componentType": 5126,
      "count": 3538,
      "max": [
        0.99996531009674072,
        0.99999570846557617,
        0.9999774694442749
      ],
      "min": [
        -0.99997138977050781,
        -0.99999570846557617,
        -0.99999940395355225
      ],
      "type": "VEC3"
    },
    {
      "bufferView": 1,
      "componentType": 5126,
      "count": 3538,
      "max": [
        0.98756945133209229,
        0.97520965337753296
      ],
      "min": [
        0.0073742624372243881,
        0.0049560051411390305
      ],
      "type": "VEC2"
    },
    {
      "bufferView": 1,
      "byteOffset": 28304,
      "componentType": 5126,
      "count": 3538,
      "max": [
        0.98756945133209229,
        0.97520965337753296
      ],
      "min": [
        0.0073742624372243881,
        0.0049560051411390305
      ],
      "type": "VEC2"
    },
    {
      "bufferView": 0,
      "componentType": 5125,
      "count": 18042,
      "max": [
        3537
      ],
      "min": [
        0
      ],
      "type": "SCALAR"
    },
    {
      "bufferView": 2,
      "byteOffset": 84912,
      "componentType": 5126,
      "count": 1046,
      "max": [
        0.77823877334594727,
        0.77008950710296631,
        3.0753870010375977
      ],
      "min": [
        0.14942297339439392,
        -0.77008950710296631,
        2.4529716968536377
      ],
      "type": "VEC3"
    },
    {
      "bufferView": 2,
      "byteOffset": 97464,
      "componentType": 5126,
      "count": 1046,
      "max": [
        1,
        1,
        0.9898221492767334
      ],
      "min": [
        -1,
        -1,
        -0.9898221492767334
      ],
      "type": "VEC3"
    },
    {
      "bufferView": 1,
      "byteOffset": 56608,
      "componentType": 5126,
      "count": 1046,
      "max": [
        0.97300511598587036,
        0.81434094905853271
      ],
      "min": [
        0.018404632806777954,
        0.15489503741264343
      ],
      "type": "VEC2"
    },
    {
      "bufferView": 1,
      "byteOffset": 64976,
      "componentType": 5126,
      "count": 1046,
      "max": [
        0.97300511598587036,
        0.81434094905853271
      ],
      "min": [
        0.018404632806777954,
        0.15489503741264343
      ],
      "type": "VEC2"
    },
    {
      "bufferView": 0,
      "byteOffset": 72168,
      "componentType": 5125,
      "count": 5544,
      "max": [
        1045
      ],
      "min": [
        0
      ],
      "type": "SCALAR"
    }
  ],
  "asset": {
    "extras": {
      "author": "f.defuentes (https://sketchfab.com/f.defuentes)",
      "license": "CC-BY-4.0 (http://creativecommons.org/licenses/by/4.0/)",
      "source": "https://sketchfab.com/3d-models/cartoon-anglerfish-7f226597afca429783d8d8a93f5ca796",
      "title": "Cartoon Anglerfish"
    },
    "generator": "Sketchfab-7.37.0",
    "version": "2.0"
  },
  "bufferViews": [
    {
      "buffer": 0,
      "byteLength": 94344,
      "byteOffset": 0,
      "name": "floatBufferViews",
      "target": 34963
    },
    {
      "buffer": 0,
      "byteLength": 73344,
      "byteOffset": 94344,
      "byteStride": 8,
      "name": "floatBufferViews",
      "target": 34962
    },
    {
      "buffer": 0,
      "byteLength": 110016,
      "byteOffset": 167688,
      "byteStride": 12,
      "name": "floatBufferViews",
      "target": 34962
    }
  ],
  "buffers": [
    {
      "byteLength": 277704,
      "uri": "src/components/scenes/scene.bin"
    }
  ],
  "images": [
    {
      "uri": "src/components/scenes/textures/LP_Mat_baseColor.png"
    },
    {
      "uri": "src/components/scenes/textures/LP_Mat_emissive.png"
    }
  ],
  "materials": [
    {
      "doubleSided": true,
      "emissiveFactor": [
        1,
        1,
        1
      ],
      "emissiveTexture": {
        "index": 1,
        "texCoord": 0
      },
      "name": "LP_Mat",
      "pbrMetallicRoughness": {
        "baseColorFactor": [
          1,
          1,
          1,
          1
        ],
        "baseColorTexture": {
          "index": 0,
          "texCoord": 0
        },
        "metallicFactor": 0,
        "roughnessFactor": 0.51048018292682928
      }
    },
    {
      "doubleSided": true,
      "emissiveFactor": [
        0,
        0,
        0
      ],
      "name": "LP_Mat_Eyes",
      "pbrMetallicRoughness": {
        "baseColorFactor": [
          1,
          1,
          1,
          1
        ],
        "baseColorTexture": {
          "index": 0,
          "texCoord": 0
        },
        "metallicFactor": 0,
        "roughnessFactor": 0.07755335365853655
      }
    }
  ],
  "meshes": [
    {
      "name": "Mesh_Retopo.003_LP_Mat_0",
      "primitives": [
        {
          "attributes": {
            "NORMAL": 1,
            "POSITION": 0,
            "TEXCOORD_0": 2,
            "TEXCOORD_1": 3
          },
          "indices": 4,
          "material": 0,
          "mode": 4
        }
      ]
    },
    {
      "name": "Mesh_Retopo.003_LP_Mat_Eyes_0",
      "primitives": [
        {
          "attributes": {
            "NORMAL": 6,
            "POSITION": 5,
            "TEXCOORD_0": 7,
            "TEXCOORD_1": 8
          },
          "indices": 9,
          "material": 1,
          "mode": 4
        }
      ]
    }
  ],
  "nodes": [
    {
      "children": [
        1
      ],
      "name": "RootNode (gltf orientation matrix)",
      "rotation": [
        -0.70710678118654746,
        -0,
        -0,
        0.70710678118654757
      ]
    },
    {
      "children": [
        2
      ],
      "name": "RootNode (model correction matrix)"
    },
    {
      "children": [
        3
      ],
      "matrix": [
        1,
        0,
        0,
        0,
        0,
        0,
        1,
        0,
        0,
        -1,
        0,
        0,
        0,
        0,
        0,
        1
      ],
      "name": "306780cd9f6d44b09186e49b016d110e.fbx"
    },
    {
      "children": [
        4
      ],
      "name": "RootNode"
    },
    {
      "children": [
        5,
        6
      ],
      "matrix": [
        99.798223817196387,
        0,
        -6.3494920121015515,
        0,
        -6.3494920121014671,
        -1.6292069182169283e-05,
        -99.798223817195066,
        0,
        -1.0344634739090086e-06,
        99.999999999998678,
        -1.6259193191814347e-05,
        0,
        0,
        0,
        0,
        1
      ],
      "name": "Mesh_Retopo.003"
    },
    {
      "mesh": 0,
      "name": "Mesh_Retopo.003_LP_Mat_0"
    },
    {
      "mesh": 1,
      "name": "Mesh_Retopo.003_LP_Mat_Eyes_0"
    }
  ],
  "samplers": [
    {
      "magFilter": 9729,
      "minFilter": 9987,
      "wrapS": 10497,
      "wrapT": 10497
    }
  ],
  "scene": 0,
  "scenes": [
    {
      "name": "OSG_Scene",
      "nodes": [
        0
      ]
    }
  ],
  "textures": [
    {
      "sampler": 0,
      "source": 0
    },
    {
      "sampler": 0,
      "source": 1
    }
  ]
}

